<?xml version="1.0" encoding="utf-8"?>
<!-- Generator: Adobe Illustrator 17.0.0, SVG Export Plug-In . SVG Version: 6.00 Build 0)  -->
<!DOCTYPE svg PUBLIC "-//W3C//DTD SVG 1.1 Basic//EN" "http://www.w3.org/Graphics/SVG/1.1/DTD/svg11-basic.dtd">
<svg version="1.1" baseProfile="basic" id="Layer_1"
	 xmlns="http://www.w3.org/2000/svg" xmlns:xlink="http://www.w3.org/1999/xlink" x="0px" y="0px" width="240.925px"
	 height="214.256px" viewBox="0 0 240.925 214.256" xml:space="preserve">
<circle fill="#3176BC" cx="116.222" cy="106.261" r="99.006"/>
<rect x="64.556" y="48.667" transform="matrix(0.7071 -0.7071 0.7071 0.7071 -36.9057 111.5685)" fill="#7F7F7F" stroke="#FFFFFF" stroke-width="4" stroke-miterlimit="10" width="103.333" height="103.333"/>
<rect x="43.155" y="130.889" fill="#7F7F7F" stroke="#FFFFFF" stroke-width="4" stroke-miterlimit="10" width="146.135" height="26.667"/>
<rect x="64.556" y="136.26" fill="none" width="101.734" height="18.406"/>
<text transform="matrix(1 0 0 1 64.5557 152.0798)" fill="#FFFFFF" font-family="'Impact'" font-size="20" letter-spacing="8">KANATA</text>
<g>
	<path fill="#4684C5" stroke="#FFFFFF" stroke-width="2" stroke-miterlimit="10" d="M130.321,129.952l-2.017-10.764
		c-13.812-19.167,12.852-42.964,12.852-42.964c-36.365-38.338-38.222,41.223-38.296,53.35L130.321,129.952z"/>
	<path fill="#3176BC" stroke="#FFFFFF" stroke-width="2" stroke-miterlimit="10" d="M151.813,130.248
		c-1.201-7.295-12.775-11.46-14.776-16.381c-6.659-16.377,9.021-30.455,9.021-30.455l-5.143-10.585
		c-23.16,7.677-18.645,44.998-16.538,57.043L151.813,130.248z"/>
	<path fill="#75B6E4" stroke="#FFFFFF" stroke-width="2" stroke-miterlimit="10" d="M107.615,129.64
		c-8.353-18.854,1.958-43.505,1.958-43.505c23.059-39.125,39.197,2.931,39.197,2.931c5.44-9.272-1.074-21.992-1.074-21.992
		c-17.878-26.511-47.043,5.717-47.043,5.717l-13.136,17.24l-17.774,21.854l7.169,17.332L107.615,129.64z"/>
</g>
</svg>
